<svg xmlns="http://www.w3.org/2000/svg" width="430" height="430" fill="none" viewBox="0 0 430 430"><path fill="#ebe6ef" d="M347.9 179.78v195.78H82.52V179.83h.02l88.44-83.18L215.27 55l44.17 41.56z"/><path fill="#ebe6ef" d="m234.3 72.9-25.25 23.75-88.44 83.18h-.02v195.73H82.53V179.83h.02l88.44-83.18L215.28 55z" opacity=".5" style="mix-blend-mode:multiply"/><path fill="#2ca58d" d="M277.34 254.439c-12.85 15.81-30.49 24.06-44.82 22.4-4.56-13.69-.1-32.65 12.75-48.46s30.49-24.06 44.82-22.4c4.56 13.69.09 32.65-12.75 48.46m-76.86 32.132c-9.99 3.33-23.83.07-35.38-9.31-11.54-9.38-17.56-22.26-16.35-32.73 9.99-3.32 23.83-.07 35.38 9.32 11.54 9.38 17.56 22.25 16.35 32.72"/><path fill="#2ca58d" d="M290.54 207.449c-10.52 3.07-21.34 10.29-29.99 20.93-12.4 15.25-16.98 33.43-13.2 46.99-5.11 1.5-10.15 2.01-14.83 1.47-4.56-13.69-.1-32.65 12.75-48.46s30.49-24.06 44.82-22.4c.16.48.31.98.45 1.47m-89.92 76.59c0 .85-.05 1.7-.14 2.53-9.99 3.33-23.83.07-35.38-9.31-11.54-9.38-17.56-22.26-16.35-32.73 4.05-1.34 8.72-1.61 13.62-.83-.08 9.96 5.86 21.56 16.49 30.2 6.88 5.58 14.56 9 21.76 10.14" opacity=".5" style="mix-blend-mode:multiply"/><path fill="#b26836" d="M296.34 375.56H134.08c0-15.43 12.51-27.95 27.95-27.95 5.18 0 10.04 1.42 14.2 3.88 7.82-13.4 22.35-22.39 38.98-22.39s31.16 8.99 38.98 22.39c4.16-2.46 9.01-3.88 14.19-3.88 15.44 0 27.96 12.52 27.96 27.95"/><path fill="#b26836" d="M248.03 343.27a46.9 46.9 0 0 0-19.44-4.19c-17.37 0-32.54 9.39-40.71 23.38a29.04 29.04 0 0 0-14.83-4.05c-11.83 0-22.01 7.03-26.59 17.15h-12.38c0-15.43 12.51-27.95 27.95-27.95 5.18 0 10.04 1.42 14.2 3.88 7.82-13.4 22.35-22.39 38.98-22.39 12.94 0 24.6 5.44 32.82 14.17" opacity=".5" style="mix-blend-mode:multiply"/><path fill="#646e78" d="M347.89 179.78v.05H82.53l88.44-83.18L215.26 55l44.17 41.56z"/><path fill="#646e78" d="M170.97 96.65v83.18H82.53zm176.92 83.131v.05h-88.46v-83.27z" opacity=".5" style="mix-blend-mode:multiply"/><path stroke="#121331" stroke-linecap="round" stroke-linejoin="round" stroke-width="7" d="M170.95 179.83V96.65m88.46 83.181v-83.27M82.5 179.83h265.38m0-.051v195.78H82.5v-195.73"/><path stroke="#121331" stroke-linecap="round" stroke-linejoin="round" stroke-width="7" d="M347.87 179.79v-.01L215.24 55 82.5 179.84m194.84 74.599c-12.85 15.81-30.49 24.06-44.82 22.4-4.56-13.69-.09-32.64 12.75-48.45 12.85-15.81 30.49-24.06 44.82-22.4 4.56 13.69.09 32.64-12.75 48.45m-93.21-.6c11.54 9.38 17.57 22.26 16.35 32.72-10 3.33-23.83.07-35.38-9.31-11.54-9.38-17.57-22.26-16.35-32.72 10-3.33 23.83-.07 35.38 9.31"/><path stroke="#121331" stroke-linecap="round" stroke-linejoin="round" stroke-width="7" d="M200.49 286.57c6.07 7.32 11.25 16.93 13.85 28.38 1.14 5 1.57 9.77 1.57 14.15-.79-5.94-1.53-17.65 3.44-30.98 2.08-5.57 4.76-9.86 13.18-21.28m-98.45 98.72c0-15.43 12.52-27.95 27.95-27.95 5.18 0 10.04 1.42 14.2 3.88 7.82-13.4 22.35-22.39 38.98-22.39s31.16 9 38.98 22.39c4.16-2.46 9.01-3.88 14.2-3.88 15.44 0 27.95 12.52 27.95 27.95"/></svg>